<mxfile host="app.diagrams.net" modified="2023-03-28T05:09:25.120Z" agent="Mozilla/5.0 (Windows NT 10.0; Win64; x64) AppleWebKit/537.36 (KHTML, like Gecko) Chrome/111.0.0.0 Safari/537.36" etag="yPM__hcdwa7SKNuDHI6J" version="21.1.1" type="github">
  <diagram id="C5RBs43oDa-KdzZeNtuy" name="Page-1">
    <mxGraphModel dx="2261" dy="756" grid="1" gridSize="10" guides="1" tooltips="1" connect="1" arrows="1" fold="1" page="1" pageScale="1" pageWidth="827" pageHeight="1169" math="0" shadow="0">
      <root>
        <mxCell id="WIyWlLk6GJQsqaUBKTNV-0" />
        <mxCell id="WIyWlLk6GJQsqaUBKTNV-1" parent="WIyWlLk6GJQsqaUBKTNV-0" />
        <mxCell id="WIyWlLk6GJQsqaUBKTNV-2" value="" style="rounded=0;html=1;jettySize=auto;orthogonalLoop=1;fontSize=11;endArrow=block;endFill=0;endSize=8;strokeWidth=1;shadow=0;labelBackgroundColor=none;edgeStyle=orthogonalEdgeStyle;" parent="WIyWlLk6GJQsqaUBKTNV-1" source="WIyWlLk6GJQsqaUBKTNV-3" target="HY93Yu-1g8AP4OX851hb-0" edge="1">
          <mxGeometry relative="1" as="geometry">
            <mxPoint x="60" y="60" as="targetPoint" />
          </mxGeometry>
        </mxCell>
        <mxCell id="WIyWlLk6GJQsqaUBKTNV-3" value="User runs program" style="rounded=1;whiteSpace=wrap;html=1;fontSize=12;glass=0;strokeWidth=1;shadow=0;" parent="WIyWlLk6GJQsqaUBKTNV-1" vertex="1">
          <mxGeometry x="359" width="120" height="40" as="geometry" />
        </mxCell>
        <mxCell id="HY93Yu-1g8AP4OX851hb-2" style="edgeStyle=orthogonalEdgeStyle;rounded=0;orthogonalLoop=1;jettySize=auto;html=1;" edge="1" parent="WIyWlLk6GJQsqaUBKTNV-1" source="HY93Yu-1g8AP4OX851hb-0" target="HY93Yu-1g8AP4OX851hb-1">
          <mxGeometry relative="1" as="geometry" />
        </mxCell>
        <mxCell id="HY93Yu-1g8AP4OX851hb-6" style="edgeStyle=orthogonalEdgeStyle;rounded=0;orthogonalLoop=1;jettySize=auto;html=1;" edge="1" parent="WIyWlLk6GJQsqaUBKTNV-1" source="HY93Yu-1g8AP4OX851hb-0" target="HY93Yu-1g8AP4OX851hb-3">
          <mxGeometry relative="1" as="geometry" />
        </mxCell>
        <mxCell id="HY93Yu-1g8AP4OX851hb-9" style="edgeStyle=orthogonalEdgeStyle;rounded=0;orthogonalLoop=1;jettySize=auto;html=1;entryX=0;entryY=0.5;entryDx=0;entryDy=0;" edge="1" parent="WIyWlLk6GJQsqaUBKTNV-1" source="HY93Yu-1g8AP4OX851hb-0" target="HY93Yu-1g8AP4OX851hb-8">
          <mxGeometry relative="1" as="geometry" />
        </mxCell>
        <mxCell id="HY93Yu-1g8AP4OX851hb-10" style="edgeStyle=orthogonalEdgeStyle;rounded=0;orthogonalLoop=1;jettySize=auto;html=1;exitX=1;exitY=0.5;exitDx=0;exitDy=0;" edge="1" parent="WIyWlLk6GJQsqaUBKTNV-1" source="HY93Yu-1g8AP4OX851hb-0" target="HY93Yu-1g8AP4OX851hb-7">
          <mxGeometry relative="1" as="geometry" />
        </mxCell>
        <mxCell id="HY93Yu-1g8AP4OX851hb-18" style="edgeStyle=orthogonalEdgeStyle;rounded=0;orthogonalLoop=1;jettySize=auto;html=1;entryX=0.5;entryY=0;entryDx=0;entryDy=0;" edge="1" parent="WIyWlLk6GJQsqaUBKTNV-1" source="HY93Yu-1g8AP4OX851hb-0" target="HY93Yu-1g8AP4OX851hb-11">
          <mxGeometry relative="1" as="geometry" />
        </mxCell>
        <mxCell id="HY93Yu-1g8AP4OX851hb-19" style="edgeStyle=orthogonalEdgeStyle;rounded=0;orthogonalLoop=1;jettySize=auto;html=1;exitX=1;exitY=0.5;exitDx=0;exitDy=0;entryX=0.5;entryY=0;entryDx=0;entryDy=0;" edge="1" parent="WIyWlLk6GJQsqaUBKTNV-1" source="HY93Yu-1g8AP4OX851hb-0" target="HY93Yu-1g8AP4OX851hb-12">
          <mxGeometry relative="1" as="geometry">
            <Array as="points">
              <mxPoint x="280" y="145" />
              <mxPoint x="280" y="238" />
              <mxPoint x="294" y="238" />
            </Array>
          </mxGeometry>
        </mxCell>
        <mxCell id="HY93Yu-1g8AP4OX851hb-21" style="edgeStyle=orthogonalEdgeStyle;rounded=0;orthogonalLoop=1;jettySize=auto;html=1;entryX=0.5;entryY=0;entryDx=0;entryDy=0;" edge="1" parent="WIyWlLk6GJQsqaUBKTNV-1" source="HY93Yu-1g8AP4OX851hb-0" target="HY93Yu-1g8AP4OX851hb-20">
          <mxGeometry relative="1" as="geometry" />
        </mxCell>
        <mxCell id="HY93Yu-1g8AP4OX851hb-0" value="&lt;font style=&quot;font-size: 14px;&quot;&gt;display options&lt;/font&gt;&lt;br&gt;-view/add departments&lt;br&gt;-view/add roles&lt;br&gt;-view/add employees&lt;br&gt;update employee role" style="whiteSpace=wrap;html=1;aspect=fixed;" vertex="1" parent="WIyWlLk6GJQsqaUBKTNV-1">
          <mxGeometry x="354" y="80" width="130" height="130" as="geometry" />
        </mxCell>
        <mxCell id="HY93Yu-1g8AP4OX851hb-24" style="edgeStyle=orthogonalEdgeStyle;rounded=0;orthogonalLoop=1;jettySize=auto;html=1;entryX=0.5;entryY=0;entryDx=0;entryDy=0;" edge="1" parent="WIyWlLk6GJQsqaUBKTNV-1" source="HY93Yu-1g8AP4OX851hb-1" target="HY93Yu-1g8AP4OX851hb-22">
          <mxGeometry relative="1" as="geometry" />
        </mxCell>
        <mxCell id="HY93Yu-1g8AP4OX851hb-1" value="view departments" style="shape=process;whiteSpace=wrap;html=1;backgroundOutline=1;" vertex="1" parent="WIyWlLk6GJQsqaUBKTNV-1">
          <mxGeometry x="-240" y="80" width="120" height="60" as="geometry" />
        </mxCell>
        <mxCell id="HY93Yu-1g8AP4OX851hb-35" style="edgeStyle=orthogonalEdgeStyle;rounded=0;orthogonalLoop=1;jettySize=auto;html=1;entryX=0.5;entryY=0;entryDx=0;entryDy=0;entryPerimeter=0;" edge="1" parent="WIyWlLk6GJQsqaUBKTNV-1" source="HY93Yu-1g8AP4OX851hb-3" target="HY93Yu-1g8AP4OX851hb-34">
          <mxGeometry relative="1" as="geometry" />
        </mxCell>
        <mxCell id="HY93Yu-1g8AP4OX851hb-3" value="add department&lt;br&gt;" style="shape=process;whiteSpace=wrap;html=1;backgroundOutline=1;" vertex="1" parent="WIyWlLk6GJQsqaUBKTNV-1">
          <mxGeometry x="-80" y="115" width="120" height="60" as="geometry" />
        </mxCell>
        <mxCell id="HY93Yu-1g8AP4OX851hb-39" style="edgeStyle=orthogonalEdgeStyle;rounded=0;orthogonalLoop=1;jettySize=auto;html=1;" edge="1" parent="WIyWlLk6GJQsqaUBKTNV-1" source="HY93Yu-1g8AP4OX851hb-7" target="HY93Yu-1g8AP4OX851hb-38">
          <mxGeometry relative="1" as="geometry" />
        </mxCell>
        <mxCell id="HY93Yu-1g8AP4OX851hb-7" value="add role" style="shape=process;whiteSpace=wrap;html=1;backgroundOutline=1;" vertex="1" parent="WIyWlLk6GJQsqaUBKTNV-1">
          <mxGeometry x="800" y="115" width="120" height="60" as="geometry" />
        </mxCell>
        <mxCell id="HY93Yu-1g8AP4OX851hb-30" style="edgeStyle=orthogonalEdgeStyle;rounded=0;orthogonalLoop=1;jettySize=auto;html=1;" edge="1" parent="WIyWlLk6GJQsqaUBKTNV-1" source="HY93Yu-1g8AP4OX851hb-8" target="HY93Yu-1g8AP4OX851hb-26">
          <mxGeometry relative="1" as="geometry" />
        </mxCell>
        <mxCell id="HY93Yu-1g8AP4OX851hb-8" value="view roles" style="shape=process;whiteSpace=wrap;html=1;backgroundOutline=1;" vertex="1" parent="WIyWlLk6GJQsqaUBKTNV-1">
          <mxGeometry x="960" y="80" width="120" height="60" as="geometry" />
        </mxCell>
        <mxCell id="HY93Yu-1g8AP4OX851hb-33" style="edgeStyle=orthogonalEdgeStyle;rounded=0;orthogonalLoop=1;jettySize=auto;html=1;entryX=0.5;entryY=0;entryDx=0;entryDy=0;" edge="1" parent="WIyWlLk6GJQsqaUBKTNV-1" source="HY93Yu-1g8AP4OX851hb-11" target="HY93Yu-1g8AP4OX851hb-31">
          <mxGeometry relative="1" as="geometry" />
        </mxCell>
        <mxCell id="HY93Yu-1g8AP4OX851hb-11" value="view employees" style="shape=process;whiteSpace=wrap;html=1;backgroundOutline=1;" vertex="1" parent="WIyWlLk6GJQsqaUBKTNV-1">
          <mxGeometry x="80" y="260" width="120" height="60" as="geometry" />
        </mxCell>
        <mxCell id="HY93Yu-1g8AP4OX851hb-37" style="edgeStyle=orthogonalEdgeStyle;rounded=0;orthogonalLoop=1;jettySize=auto;html=1;entryX=0.5;entryY=0;entryDx=0;entryDy=0;entryPerimeter=0;" edge="1" parent="WIyWlLk6GJQsqaUBKTNV-1" source="HY93Yu-1g8AP4OX851hb-12" target="HY93Yu-1g8AP4OX851hb-36">
          <mxGeometry relative="1" as="geometry" />
        </mxCell>
        <mxCell id="HY93Yu-1g8AP4OX851hb-12" value="add employees" style="shape=process;whiteSpace=wrap;html=1;backgroundOutline=1;" vertex="1" parent="WIyWlLk6GJQsqaUBKTNV-1">
          <mxGeometry x="220" y="260" width="120" height="60" as="geometry" />
        </mxCell>
        <mxCell id="HY93Yu-1g8AP4OX851hb-41" style="edgeStyle=orthogonalEdgeStyle;rounded=0;orthogonalLoop=1;jettySize=auto;html=1;" edge="1" parent="WIyWlLk6GJQsqaUBKTNV-1" source="HY93Yu-1g8AP4OX851hb-20" target="HY93Yu-1g8AP4OX851hb-40">
          <mxGeometry relative="1" as="geometry" />
        </mxCell>
        <mxCell id="HY93Yu-1g8AP4OX851hb-20" value="update employee&lt;br&gt;role" style="shape=process;whiteSpace=wrap;html=1;backgroundOutline=1;" vertex="1" parent="WIyWlLk6GJQsqaUBKTNV-1">
          <mxGeometry x="570" y="260" width="120" height="60" as="geometry" />
        </mxCell>
        <mxCell id="HY93Yu-1g8AP4OX851hb-22" value="display" style="swimlane;whiteSpace=wrap;html=1;" vertex="1" parent="WIyWlLk6GJQsqaUBKTNV-1">
          <mxGeometry x="-260" y="195" width="130" height="130" as="geometry" />
        </mxCell>
        <mxCell id="HY93Yu-1g8AP4OX851hb-23" value="department 1 name&lt;br&gt;department 1 id" style="text;html=1;align=center;verticalAlign=middle;resizable=0;points=[];autosize=1;strokeColor=none;fillColor=none;" vertex="1" parent="HY93Yu-1g8AP4OX851hb-22">
          <mxGeometry x="-5" y="25" width="130" height="40" as="geometry" />
        </mxCell>
        <mxCell id="HY93Yu-1g8AP4OX851hb-28" value="department 2 name&lt;br&gt;department 2 id" style="text;html=1;align=center;verticalAlign=middle;resizable=0;points=[];autosize=1;strokeColor=none;fillColor=none;" vertex="1" parent="HY93Yu-1g8AP4OX851hb-22">
          <mxGeometry y="75" width="130" height="40" as="geometry" />
        </mxCell>
        <mxCell id="HY93Yu-1g8AP4OX851hb-26" value="Display" style="swimlane;whiteSpace=wrap;html=1;" vertex="1" parent="WIyWlLk6GJQsqaUBKTNV-1">
          <mxGeometry x="1020" y="190" width="130" height="160" as="geometry" />
        </mxCell>
        <mxCell id="HY93Yu-1g8AP4OX851hb-27" value="job title&lt;br&gt;role id&lt;br&gt;department&lt;br&gt;salary" style="text;html=1;align=center;verticalAlign=middle;resizable=0;points=[];autosize=1;strokeColor=none;fillColor=none;" vertex="1" parent="HY93Yu-1g8AP4OX851hb-26">
          <mxGeometry x="25" y="50" width="80" height="70" as="geometry" />
        </mxCell>
        <mxCell id="HY93Yu-1g8AP4OX851hb-31" value="Display" style="swimlane;whiteSpace=wrap;html=1;" vertex="1" parent="WIyWlLk6GJQsqaUBKTNV-1">
          <mxGeometry x="-30" y="375" width="140" height="190" as="geometry" />
        </mxCell>
        <mxCell id="HY93Yu-1g8AP4OX851hb-32" value="employee ids&lt;br&gt;first name/lastname&lt;br&gt;job titles&lt;br&gt;departments&lt;br&gt;salaries&lt;br&gt;managers reported to" style="text;html=1;align=center;verticalAlign=middle;resizable=0;points=[];autosize=1;strokeColor=none;fillColor=none;" vertex="1" parent="WIyWlLk6GJQsqaUBKTNV-1">
          <mxGeometry x="-30" y="420" width="140" height="100" as="geometry" />
        </mxCell>
        <mxCell id="HY93Yu-1g8AP4OX851hb-34" value="prompt:&lt;br&gt;&amp;nbsp;name of department" style="shape=callout;whiteSpace=wrap;html=1;perimeter=calloutPerimeter;" vertex="1" parent="WIyWlLk6GJQsqaUBKTNV-1">
          <mxGeometry x="-90" y="210" width="130" height="80" as="geometry" />
        </mxCell>
        <mxCell id="HY93Yu-1g8AP4OX851hb-36" value="prompt:&amp;nbsp;&lt;br&gt;first/last&lt;br&gt;role&lt;br&gt;manager" style="shape=callout;whiteSpace=wrap;html=1;perimeter=calloutPerimeter;" vertex="1" parent="WIyWlLk6GJQsqaUBKTNV-1">
          <mxGeometry x="215" y="360" width="130" height="95" as="geometry" />
        </mxCell>
        <mxCell id="HY93Yu-1g8AP4OX851hb-38" value="prompt:&amp;nbsp;&lt;br&gt;name&lt;br&gt;salary&lt;br&gt;department" style="shape=callout;whiteSpace=wrap;html=1;perimeter=calloutPerimeter;" vertex="1" parent="WIyWlLk6GJQsqaUBKTNV-1">
          <mxGeometry x="795" y="210" width="130" height="100" as="geometry" />
        </mxCell>
        <mxCell id="HY93Yu-1g8AP4OX851hb-40" value="&lt;br&gt;prompt:&amp;nbsp;&lt;br&gt;select an employee&lt;br&gt;update&lt;br&gt;job title&lt;br&gt;department&lt;br&gt;salary&lt;br&gt;manager" style="shape=callout;whiteSpace=wrap;html=1;perimeter=calloutPerimeter;position2=0.5;" vertex="1" parent="WIyWlLk6GJQsqaUBKTNV-1">
          <mxGeometry x="550" y="390" width="140" height="160" as="geometry" />
        </mxCell>
      </root>
    </mxGraphModel>
  </diagram>
</mxfile>
